<svg width="1200" height="760" viewBox="0 0 1200 760" fill="none" xmlns="http://www.w3.org/2000/svg">
  <rect width="1200" height="760" rx="28" fill="#EAF6FF"/>
  <rect x="60" y="80" width="1080" height="600" rx="24" fill="white" stroke="#CFE5F6"/>
  <rect x="120" y="140" width="440" height="60" rx="12" fill="#DBEAFE"/>
  <rect x="120" y="220" width="360" height="30" rx="10" fill="#E2E8F0"/>
  <rect x="120" y="270" width="300" height="30" rx="10" fill="#E2E8F0"/>
  <rect x="120" y="340" width="240" height="56" rx="12" fill="#22C55E"/>
  <rect x="400" y="340" width="220" height="56" rx="12" fill="#F1F5F9" stroke="#CBD5E1"/>
  <rect x="640" y="140" width="470" height="480" rx="20" fill="#F8FAFC" stroke="#DDE7F0"/>
  <rect x="690" y="200" width="370" height="90" rx="14" fill="#DCFCE7"/>
  <rect x="720" y="234" width="210" height="22" rx="8" fill="#16A34A" opacity="0.45"/>
  <rect x="690" y="320" width="370" height="90" rx="14" fill="#E0F2FE"/>
  <rect x="720" y="354" width="250" height="22" rx="8" fill="#0284C7" opacity="0.35"/>
  <rect x="690" y="440" width="370" height="90" rx="14" fill="#F1F5F9"/>
  <rect x="720" y="474" width="190" height="22" rx="8" fill="#64748B" opacity="0.3"/>
  <circle cx="1010" cy="615" r="16" fill="#22C55E"/>
  <text x="85" y="730" fill="#64748B" font-size="24" font-family="Arial, sans-serif">RedLocal • Atención por WhatsApp para PYMES</text>
</svg>
