<svg width="1600" height="1000" viewBox="0 0 1600 1000" xmlns="http://www.w3.org/2000/svg">
  <defs>
    <linearGradient id="bg" x1="0" y1="0" x2="1" y2="1">
      <stop offset="0%" stop-color="#EAF4FF"/>
      <stop offset="100%" stop-color="#F0FDF4"/>
    </linearGradient>
    <filter id="shadow" x="-20%" y="-20%" width="140%" height="140%">
      <feDropShadow dx="0" dy="10" stdDeviation="10" flood-opacity="0.12"/>
    </filter>
  </defs>
  <rect width="1600" height="1000" rx="30" fill="url(#bg)"/>

  <text x="90" y="120" font-family="Inter,Arial" font-size="52" font-weight="700" fill="#0f172a">Atención WhatsApp 24/7 para PYMES</text>
  <text x="90" y="170" font-family="Inter,Arial" font-size="28" fill="#334155">Más velocidad, más orden y más leads calificados</text>

  <rect x="90" y="220" width="650" height="620" rx="24" fill="#fff" stroke="#dbeafe" filter="url(#shadow)"/>
  <text x="130" y="280" font-family="Inter,Arial" font-size="26" font-weight="700" fill="#0f172a">Cliente escribe por WhatsApp</text>
  <rect x="130" y="320" width="500" height="90" rx="14" fill="#dcfce7"/>
  <text x="155" y="372" font-family="Inter,Arial" font-size="26" fill="#166534">Hola, ¿tienen disponibilidad hoy?</text>

  <rect x="130" y="440" width="560" height="130" rx="14" fill="#e0f2fe"/>
  <text x="155" y="490" font-family="Inter,Arial" font-size="24" fill="#0c4a6e">✅ Respuesta automática inmediata</text>
  <text x="155" y="528" font-family="Inter,Arial" font-size="24" fill="#0c4a6e">✅ Captura datos de contacto</text>

  <rect x="130" y="600" width="420" height="80" rx="12" fill="#22c55e"/>
  <text x="165" y="650" font-family="Inter,Arial" font-size="30" font-weight="700" fill="#052e16">Lead calificado</text>

  <rect x="830" y="220" width="680" height="620" rx="24" fill="#fff" stroke="#cbd5e1" filter="url(#shadow)"/>
  <text x="870" y="280" font-family="Inter,Arial" font-size="26" font-weight="700" fill="#0f172a">Panel operativo RedLocal</text>

  <rect x="870" y="320" width="600" height="120" rx="14" fill="#f8fafc" stroke="#e2e8f0"/>
  <text x="900" y="372" font-family="Inter,Arial" font-size="24" fill="#334155">Conversaciones activas: 148</text>
  <text x="900" y="410" font-family="Inter,Arial" font-size="24" fill="#334155">Tiempo medio respuesta: 18 seg</text>

  <rect x="870" y="470" width="280" height="150" rx="14" fill="#ecfeff" stroke="#bae6fd"/>
  <text x="900" y="540" font-family="Inter,Arial" font-size="22" fill="#155e75">Leads nuevos</text>
  <text x="900" y="585" font-family="Inter,Arial" font-size="42" font-weight="700" fill="#0c4a6e">+37</text>

  <rect x="1190" y="470" width="280" height="150" rx="14" fill="#f0fdf4" stroke="#bbf7d0"/>
  <text x="1220" y="540" font-family="Inter,Arial" font-size="22" fill="#166534">Derivaciones</text>
  <text x="1220" y="585" font-family="Inter,Arial" font-size="42" font-weight="700" fill="#14532d">12</text>

  <rect x="870" y="650" width="600" height="150" rx="14" fill="#fefce8" stroke="#fde68a"/>
  <text x="900" y="712" font-family="Inter,Arial" font-size="24" fill="#854d0e">Implementación estándar · Producto cerrado · Escalable</text>

  <path d="M740 530 C790 530, 790 530, 830 530" stroke="#64748b" stroke-width="8" fill="none" stroke-linecap="round"/>
  <polygon points="822,515 850,530 822,545" fill="#64748b"/>
</svg>
