<svg width="1200" height="480" viewBox="0 0 1200 480" fill="none" xmlns="http://www.w3.org/2000/svg">
  <rect width="1200" height="480" rx="24" fill="#F8FAFC"/>
  <rect x="60" y="60" width="320" height="360" rx="18" fill="white" stroke="#E2E8F0"/>
  <rect x="440" y="60" width="320" height="360" rx="18" fill="white" stroke="#E2E8F0"/>
  <rect x="820" y="60" width="320" height="360" rx="18" fill="white" stroke="#E2E8F0"/>
  <circle cx="220" cy="150" r="46" fill="#FEE2E2"/>
  <rect x="150" y="230" width="140" height="18" rx="7" fill="#CBD5E1"/>
  <rect x="150" y="258" width="100" height="18" rx="7" fill="#E2E8F0"/>
  <circle cx="600" cy="150" r="46" fill="#FEF3C7"/>
  <rect x="530" y="230" width="140" height="18" rx="7" fill="#CBD5E1"/>
  <rect x="530" y="258" width="100" height="18" rx="7" fill="#E2E8F0"/>
  <circle cx="980" cy="150" r="46" fill="#E0F2FE"/>
  <rect x="910" y="230" width="140" height="18" rx="7" fill="#CBD5E1"/>
  <rect x="910" y="258" width="100" height="18" rx="7" fill="#E2E8F0"/>
  <text x="60" y="450" fill="#64748B" font-size="22" font-family="Arial, sans-serif">Dolores comunes: demora, desorden y pérdida de leads</text>
</svg>
